
<svg width="16" height="16" viewBox="0 0 24 24" fill="none" xmlns="http://www.w3.org/2000/svg">
  <path fill-rule="evenodd" clip-rule="evenodd" d="M12 0C5.373 0 0 5.373 0 12C0 17.303 3.438 21.8 8.207 23.385C8.805 23.493 9 23.146 9 22.85V20.993C5.672 21.694 4.968 19.448 4.968 19.448C4.422 17.938 3.633 17.545 3.633 17.545C2.546 16.815 3.709 16.83 3.709 16.83C4.906 16.904 5.548 18.019 5.548 18.019C6.61 19.787 8.272 19.314 8.945 19.015C9.052 18.238 9.373 17.745 9.724 17.463C7.097 17.169 4.347 16.152 4.347 11.487C4.347 10.17 4.815 9.125 5.565 8.34C5.444 8.045 5.036 6.789 5.675 5.103C5.675 5.103 6.64 4.79 8.994 6.326C9.891 6.043 10.847 5.906 11.8 5.9C12.753 5.906 13.709 6.043 14.606 6.326C16.96 4.79 17.925 5.103 17.925 5.103C18.564 6.789 18.156 8.045 18.035 8.34C18.785 9.125 19.253 10.17 19.253 11.487C19.253 16.167 16.5 17.164 13.869 17.455C14.294 17.826 14.67 18.604 14.67 19.789V22.85C14.67 23.146 14.866 23.497 15.467 23.385C20.236 21.8 23.674 17.303 23.674 12C23.674 5.373 18.627 0 12 0Z" fill="white"/>
</svg>

